<?xml version="1.0" encoding="UTF-8"?>
<svg width="454.8" height="195" viewBox="0 0 350 150.05897368115637" xmlns="http://www.w3.org/2000/svg" class="looka-1j8o68f">
    <defs id="SvgjsDefs1011">
    </defs>
    <g id="SvgjsG1012" featurekey="ECw45b-0" transform="matrix(1.6,0,0,1.6,96.8,-20.4)" fill="#000000">
        <path
            d="M 66.8 31.4 c -0.5 -0.2 -1.2 0 -1.4 0.6 c -0.2 0.5 0 1.2 0.6 1.4 c 7.4 3.1 13 9.2 15.6 16.8 c 0.1 0.4 0.6 0.7 1 0.7 c 0.1 0 0.2 0 0.3 -0.1 c 0.6 -0.2 0.8 -0.8 0.7 -1.3 C 80.9 41.3 74.8 34.7 66.8 31.4 z M 95.1 47.9 c -3.5 -13.2 -13.3 -23.8 -26.2 -28.3 c -0.6 -0.2 -1.2 0.1 -1.3 0.6 c -0.2 0.6 0.1 1.2 0.6 1.3 c 12.2 4.3 21.5 14.3 24.9 26.8 c 0.1 0.5 0.6 0.8 1 0.8 c 0.1 0 0.2 0 0.3 0 C 94.9 49 95.3 48.4 95.1 47.9 z M 55.2 40.2 c -1.9 0 -3.9 0.3 -5.8 1 c -2.7 -5.3 -8.2 -8.7 -14.2 -8.7 c -7.9 0 -14.5 5.7 -15.7 13.4 c -8.1 0.8 -14.3 7.6 -14.3 15.8 c 0 8 6 14.7 13.8 15.7 l 0 0.2 H 55.2 c 10.3 0 18.8 -8.4 18.8 -18.8 C 73.9 48.6 65.5 40.2 55.2 40.2 z M 55.2 75.6 h -33.5 l 0 0 l -1.3 -0.1 c -7.3 -0.4 -13 -6.5 -13 -13.8 c 0 -7.4 5.8 -13.4 13.2 -13.8 l 0.9 0 l 0.1 -0.9 c 0.7 -7.1 6.6 -12.4 13.7 -12.4 c 5.5 0 10.4 3.2 12.7 8.3 l 0.4 0.9 l 0.9 -0.4 c 2 -0.8 4 -1.1 5.9 -1.1 c 9.2 0 16.6 7.5 16.6 16.6 C 71.8 68.2 64.4 75.6 55.2 75.6 z">
        </path>
    </g>
    <g id="SvgjsG1013" featurekey="6sJQsk-0" transform="matrix(2,0,0,2,-2.1,110.4)" fill="#000000">
        <path
            d="M 12.7 17.5 l -2.7 2.4 l -7.6 0 l 0 -6.2 l -1.2 -1.1 l 1.2 -1.1 l 0 -6.3 l 7.6 0 l 2.7 2.4 l 0 9.8 z M 10.5 16.5 l 0 -7.7 l -1.5 -1.3 l -4.6 0 l 0 10.4 l 4.6 0 z M 26.7 20 l -8.9 0 l 0 -6.2 l -1.2 -1.1 l 1.2 -1.1 l 0 -6.3 l 8.9 0 l 0 2.1 l -6.7 0 l 0 4.2 l 5.2 0 l 0 2.1 l -5.2 0 l 0 4.1 l 6.7 0 l 0 2.1 z M 43.3 5.3 l -2.4 6.5 l 1.1 1.1 l -1.9 0.9 l -2.4 6.2 l -2.3 0 l -2.4 -6.2 l -1.9 -0.9 l 1.1 -1.1 l -2.4 -6.5 l 2.4 0 l 4.3 11.7 l 4.3 -11.7 l 2.5 0 z M 57.3 17.6 l -2.8 2.4 l -5 0 l -2.8 -2.4 l 0 -2.7 l 2.1 0 l 0 1.6 l 1.5 1.3 l 3.2 0 l 1.5 -1.3 l 0 -1.6 l -1.5 -1.3 l -3.8 0 l -2.8 -2.5 l 0 -3.4 l 2.8 -2.4 l 4.7 0 l 2.8 2.4 l 0 2.4 l -2.1 0 l 0 -1.5 l -1.4 -1.2 l -3 0 l -1.4 1.2 l 0 1.5 l 1.4 1.2 l 3.9 0 l 2.8 2.4 l 0 3.7 z M 74.5 12.7 l -1.2 1.1 l 0 3.8 l -2.7 2.4 l -5.2 0 l -2.8 -2.4 l 0 -3.8 l -1.2 -1.1 l 1.2 -1.1 l 0 -3.9 l 2.8 -2.4 l 5.2 0 l 2.7 2.4 l 0 3.9 z M 71.2 16.6 l 0 -7.8 l -1.5 -1.3 l -3.4 0 l -1.5 1.3 l 0 7.8 l 1.5 1.3 l 3.4 0 z M 88.5 20 l -8.9 0 l 0 -6.2 l -1.2 -1.1 l 1.2 -1.1 l 0 -6.3 l 2.1 0 l 0 12.5 l 6.7 0 l 0 2.1 z M 105.5 12.7 l -1.2 1.1 l 0 3.8 l -2.7 2.5 l -5.2 0 l -2.7 -2.5 l 0 -3.8 l -1.2 -1.1 l 1.2 -1.1 l 0 -6.3 l 2.1 0 l 0 11.2 l 1.5 1.3 l 3.4 0 l 1.5 -1.3 l 0 -11.2 l 2.1 0 l 0 6.3 z M 121.2 17.6 l -2.7 2.4 l -5.2 0 l -2.8 -2.4 l 0 -3.8 l -1.2 -1.1 l 1.2 -1.1 l 0 -3.9 l 2.8 -2.4 l 5.2 0 l 2.7 2.4 l 0 3.1 l -2.1 0 l 0 -2.1 l -1.5 -1.3 l -3.4 0 l -1.5 1.3 l 0 7.8 l 1.5 1.3 l 3.4 0 l 1.5 -1.3 l 0 -1.8 l 2.1 0 l 0 2.8 z M 135.5 7.5 l -4.3 0 l 0 4.2 l 1.2 1.1 l -1.2 1.1 l 0 6.2 l -2.1 0 l 0 -6.2 l -1.2 -1.1 l 1.2 -1.1 l 0 -4.2 l -4.3 0 l 0 -2.1 l 10.7 0 l 0 2.1 z M 143.9 12.7 l -1.2 1.1 l 0 6.2 l -2.1 0 l 0 -6.2 l -1.2 -1.1 l 1.2 -1.1 l 0 -6.3 l 2.1 0 l 0 6.3 z M 161.1 12.7 l -1.2 1.1 l 0 3.8 l -2.7 2.4 l -5.2 0 l -2.8 -2.4 l 0 -3.8 l -1.2 -1.1 l 1.2 -1.1 l 0 -3.9 l 2.8 -2.4 l 5.2 0 l 2.7 2.4 l 0 3.9 z M 157.7 16.6 l 0 -7.8 l -1.5 -1.3 l -3.4 0 l -1.5 1.3 l 0 7.8 l 1.5 1.3 l 3.4 0 z M 177.6 12.7 l -1.2 1.1 l 0 6.2 l -2.1 0 l -6.1 -10.9 l 0 10.9 l -2.1 0 l 0 -6.2 l -1.2 -1.1 l 1.2 -1.1 l 0 -6.3 l 2.3 0 l 6 10.6 l 0 -10.6 l 2.1 0 l 0 6.3 z">
        </path>
    </g>
</svg>